<svg height="499pt" viewBox="-3 0 499 499.312" width="499pt" xmlns="http://www.w3.org/2000/svg"><path d="m64.957031 451.3125 20.824219-16.664062 64.453125-16.113282 319.226563-319.222656-8-8 24-24-67.3125-67.3125-24 24-8-8-319.222657 319.222656-15.90625 63.617188-50.863281 42.382812 13.046875 26.089844h458.703125l-4 16h-425.757812v16h438.246093l12-48zm117.878907-88-12.6875 12.6875-60.6875-60.6875 12.6875-12.6875zm-49.375-72 204.6875-204.6875 60.6875 60.6875-204.6875 204.6875zm25.375 96-12.6875 12.6875-60.6875-60.6875 12.6875-12.6875zm259.3125-364.6875 44.6875 44.6875-12.6875 12.6875-44.6875-44.6875zm28.6875 76.6875-36.6875 36.6875-60.6875-60.6875 36.6875-36.6875zm-368.351563 255.648438 52.015625 52.015624-45.902344 11.472657-17.59375-17.59375zm-39.144531 96.351562h-16.246094l-2.960938-5.914062 37.519532-31.269532 12.519531 12.519532zm0 0"/><path d="m321.179688 139.3125c-6.671876 0-12.945313 2.597656-17.65625 7.3125l-110.0625 110.0625c-4.714844 4.710938-7.3125 10.984375-7.3125 17.65625 0 13.769531 11.199218 24.96875 24.96875 24.96875 6.671874 0 12.941406-2.601562 17.65625-7.3125l110.0625-110.0625c4.710937-4.714844 7.3125-10.984375 7.3125-17.65625 0-13.769531-11.199219-24.96875-24.96875-24.96875zm6.34375 31.3125-110.0625 110.0625c-1.695313 1.6875-3.945313 2.625-6.34375 2.625-4.945313 0-8.96875-4.023438-8.96875-8.96875 0-2.398438.9375-4.648438 2.625-6.34375l110.0625-110.0625c1.695312-1.691406 3.945312-2.625 6.34375-2.625 4.945312 0 8.96875 4.023438 8.96875 8.96875 0 2.398438-.9375 4.648438-2.625 6.34375zm0 0"/></svg>